# xmcd
# Copyright (c) 1998 CDDB Inc.
#
# Track frame offsets:
#	150
#	30894
#	54916
#	85676
#	112523
#	138461
#	154227
#	165675
#	194969
#	220803
#	240909
#	262210
#	287310
#	304322
#	319177
#
# Disc length: 4480 seconds
#
# Revision: 2
# Processed by: cddbd v1.4PL0 Copyright (c) Steve Scherf et al.
# Submitted via: audiograbber 1.70
#
DISCID=c7117e0f
DTITLE=Bjelo Dugme - Sta bi dao da si na mom mestu
DYEAR=1900
DGENRE=
TTITLE0=Sta bi dao da si na mom mestu
TTITLE1=Da te bogo ne volim
TTITLE2=Sve ce to mila moja prekriti ...
TTITLE3=Evo zaklecu se
TTITLE4=Selma
TTITLE5=Ima neka tajna veza
TTITLE6=Lose vino
TTITLE7=Sanjao sam nocas ...
TTITLE8=Jer kad ostaris
TTITLE9=Kad zaboravis juli
TTITLE10=Nakon svih ovih godina
TTITLE11=Ne gledaj me tako i ne ljubi me vise
TTITLE12=Pjesma za malu pticu
TTITLE13=Pristao sam bicu sve sto hoce
TTITLE14=Ruzica si bila
EXTD=
EXTT0=
EXTT1=
EXTT2=
EXTT3=
EXTT4=
EXTT5=
EXTT6=
EXTT7=
EXTT8=
EXTT9=
EXTT10=
EXTT11=
EXTT12=
EXTT13=
EXTT14=
PLAYORDER=
